<?xml version="1.0" encoding="utf-8"?>
<!-- Generator: Adobe Illustrator 26.1.0, SVG Export Plug-In . SVG Version: 6.00 Build 0)  -->
<svg version="1.1" id="Слой_1" xmlns="http://www.w3.org/2000/svg" x="0px" y="0px"
     viewBox="0 0 992 576" style="enable-background:new 0 0 992 576;" xml:space="preserve">
<style type="text/css">
	.st0{fill:#CECDCD;}
	.st1{fill:#FF7800;}
	.st2{fill:#E66100;}
	.st3{fill:#252525;}
	.st4{fill:#9A9996;}
	.st5{fill:#77767B;}
	.st6{fill:#393939;}
	.st7{font-family:'Arial-BoldMT';}
	.st8{font-size:31.5322px;}
	.st9{font-size:36.9147px;}
	.st10{font-size:24.7146px;}
	.st11{font-size:25.1774px;}
	.st12{fill:none;}
	.st13{font-size:9px;}
	.st14{font-size:20.922px;}
</style>
<path class="st0" d="M0,0v470h510v106h289.8C906,576,992,490,992,383.8V0H0z M992,150h-22V0h22V150z"/>
<g>
	<path class="st1" d="M75,10v75H20V10H75z"/>
	<path class="st2" d="M20,85h55L65,95H10V20l10-10V85z"/>
	<path class="st3" d="M68,50v10H58H48H38H28V35h10v5h10v5h10v5H68z"/>
</g>
<g>
	<path class="st1" d="M960,10v75h-55V10H960z"/>
	<path class="st2" d="M905,85h55l-10,10h-55V20l10-10V85z"/>
	<path class="st3" d="M952,50v10h-10h-10h-10h-10V35h10v5h10v5h10v5H952z"/>
</g>
<g>
	<path class="st1" d="M580,470v90h-55v-90l0,0H580z"/>
	<path class="st2" d="M525,560h55l-10,10h-55l0,0v-90l10-10V560z"/>
	<path class="st3" d="M572,517v10h-10h-10h-10h-10v-25h10v5h10v5h10v5H572z"/>
</g>
<g>
	<path class="st1" d="M800,345v50H685v-50H800z"/>
	<path class="st2" d="M685,395h115l-10,10H675v-50l10-10V395z"/>
	<path class="st3" d="M760,370v10h-10h-10h-10h-10v-25h10v5h10v5h10v5H760z"/>
</g>
<g>
	<path class="st4" d="M890,20h-80V10h80V20z"/>
	<path class="st5" d="M810,20h80l-5,5h-80L810,20z M805,25l5-5V10l-5,5V25z"/>
</g>
<g>
	<path class="st4" d="M135,195H20v-25h115V195z"/>
	<path class="st5" d="M10,180l10-10l0,25l-10,10L10,180z M135,195H20l-10,10h115L135,195z"/>
</g>
<g>
	<path class="st4" d="M200,10h115v70H200V10z"/>
	<path class="st5" d="M190,20l10-10l0,70l-10,10L190,20z M315,80H200l-10,10h115L315,80z"/>
</g>
<g>
	<path class="st4" d="M335,10h120v70H335V10z"/>
	<path class="st5" d="M325,20l10-10l0,70l-10,10L325,20z M455,80H335l-10,10h120L455,80z"/>
</g>
<g>
	<path class="st4" d="M950,100h10v45h-10V100z"/>
	<path class="st5" d="M945,105l5-5v45l-5,5V105z M945,150h10l5-5h-10L945,150z"/>
</g>
<g>
	<path class="st1" d="M185,80H90V10h95V80z"/>
	<path class="st2" d="M80,20l10-10l0,70L80,90L80,20z M80,90h95l10-10H90L80,90z"/>
</g>
<g>
	<g>
		<path class="st1" d="M510,450H20V290h490V450z"/>
		<path class="st2" d="M10,300l10-10l0,160l-10,10L10,300z M10,460h490l10-10H20L10,460z"/>
	</g>
	<text transform="matrix(1 0 0 1 210 380.7617)" class="st6 st7 st8">ЭЛЕКС</text>
</g>
<g>
	<g>
		<path class="st1" d="M850,371v99H700v106h99.8C906,576,992,490,992,383.8V371H850z"/>
		<path class="st2" d="M840,381l10-10l0,99l-10,10V381z"/>
		<path class="st1" d="M850,480h-11v-10h11V480z"/>
		<path class="st2" d="M690,480l10-10l0,106l-10,10L690,480z"/>
	</g>
	<text transform="matrix(1 0 0 1 815.0372 520.8243)" class="st6 st7 st8">DNS</text>
</g>
<g>
	<g>
		<path class="st2" d="M665,285H10l10-10h655L665,285z M10,165l10-10l0-55l-10,10L10,165z M10,285l10-10v-65l-10,10V285z M150,155
			H20l-10,10h130L150,155z M140,210h10v-55h-10V210z"/>
		<path class="st1" d="M800,75H470V10h330V75z M675,75H470v25h205V75z M20,100v55h130v55H20v65h655V100H20z"/>
		<path class="st2" d="M460,20l10-10l0,90l-10,10L460,20z M800,75H675l-10,10h125L800,75z"/>
		<path class="st1" d="M470,100h-10v10h10V100z M675,85h-10V75h10V85z"/>
	</g>
	<text transform="matrix(1 0 0 1 339.6118 200.9834)" class="st6 st7 st9">ХОРОШИЙ</text>
</g>
<g>
	<g>
		<path class="st1" d="M690,91h110v185H690V91z"/>
		<path class="st2" d="M790,286H680l10-10h110L790,286z M680,101l10-10l0,185l-10,10L680,101z"/>
	</g>
	<text transform="matrix(1 0 0 1 714.5898 201.4863)" class="st6 st7 st10">KARI</text>
</g>
<g>
	<g>
		<path class="st1" d="M850,156h135v200H850V156z"/>
		<path class="st2" d="M840,166l10-10v200l-10,10V166z M840,366h135l10-10H850L840,366z"/>
	</g>
	<text transform="matrix(1 0 0 1 859.6113 270.5215)" class="st6 st7 st11">FIXPRICE</text>
</g>
<g>
	<g>
		<path class="st1" d="M685,561h-90v-91h90V561z"/>
		<path class="st2" d="M585,480l10-10v91l-10,10V480z M585,571h90l10-10h-90L585,571z"/>
	</g>
	<rect x="598" y="507.4" class="st12" width="85.5" height="28.6"/>
	<text transform="matrix(1 0 0 1 599.8887 515.1011)"><tspan x="0" y="0" class="st6 st7 st13">КОСМЕТИЧЕСКИЙ </tspan><tspan x="24.5" y="10.8" class="st6 st7 st13">САЛОН</tspan></text>
</g>
<text transform="matrix(1 0 0 1 120.1436 50.5303)" class="st6 st7 st14">WC</text>
</svg>
