<?xml version="1.0" encoding="utf-8"?>
<!-- Generator: Adobe Illustrator 26.1.0, SVG Export Plug-In . SVG Version: 6.00 Build 0)  -->
<svg version="1.1" id="Слой_1" xmlns="http://www.w3.org/2000/svg" xmlns:xlink="http://www.w3.org/1999/xlink" x="0px" y="0px"
	 viewBox="0 0 992 576" style="enable-background:new 0 0 992 576;" xml:space="preserve">
<style type="text/css">
	.st0{fill:#CCCCCC;}
	.st1{fill:#FF7800;}
	.st2{fill:#E66100;}
	.st3{fill:#252525;}
	.st4{fill:#9A9996;}
	.st5{fill:#77767B;}
</style>
<path class="st0" d="M0,0v470h510v106h289.8C906,576,992,490,992,383.8V0H0z"/>
<g>
	<path class="st1" d="M360,10v440H20V100h60h10V10H360z"/>
	<path class="st2" d="M20,450h340l-10,10H10V110l10-10V450z M90,10L80,20v80h10V10z"/>
</g>
<g>
	<path class="st1" d="M75,10v75H20V10H75z"/>
	<path class="st2" d="M20,85h55L65,95H10V20l10-10V85z"/>
	<path class="st3" d="M68,50v10H58H48H38H28V35h10v5h10v5h10v5H68z"/>
</g>
<g>
	<path class="st1" d="M510,10v125H375V10H510z"/>
	<path class="st2" d="M375,135l-10,10V20l10-10V135z M365,145h135l10-10H375L365,145z"/>
</g>
<g>
	<path class="st1" d="M510,190v90H375v-90H510z"/>
	<path class="st2" d="M375,280l-10,10v-90l10-10V280z M365,290h135l10-10H375L365,290z"/>
</g>
<g>
	<path class="st1" d="M510,295v70H375v-70H510z"/>
	<path class="st2" d="M375,365h135l-10,10H365v-70l10-10V365z"/>
</g>
<g>
	<path class="st1" d="M510,380v70H375v-70H510z"/>
	<path class="st2" d="M375,450h135l-10,10H365v-70l10-10V450z"/>
</g>
<g>
	<path class="st1" d="M980,10v75h-55V10H980z"/>
	<path class="st2" d="M925,85h55l-10,10h-55V20l10-10V85z"/>
	<path class="st3" d="M972,50v10h-10h-10h-10h-10V35h10v5h10v5h10v5H972z"/>
</g>
<g>
	<path class="st1" d="M645,10v125H525V10H645z"/>
	<path class="st2" d="M525,135h120l-10,10H515l0,0V20l10-10V135L525,135z"/>
</g>
<g>
	<path class="st1" d="M730,10v125h-70V10H730z"/>
	<path class="st2" d="M660,135h70l-10,10h-70l0,0V20l10-10V135L660,135z"/>
</g>
<g>
	<path class="st1" d="M815,10v125h-70V10H815z"/>
	<path class="st2" d="M745,135h70l-10,10h-70V20l10-10V135z"/>
</g>
<g>
	<path class="st1" d="M980,100v35H860v-35H980z"/>
	<path class="st2" d="M860,135h120l-10,10H850v-35l10-10V135z"/>
</g>
<g>
	<rect x="825" y="10" class="st4" width="85" height="10"/>
	<polygon class="st5" points="825,10 820,15 820,25 905,25 910,20 825,20 	"/>
</g>
<g>
	<path class="st1" d="M580,470v90h-55v-90l0,0H580z"/>
	<path class="st2" d="M525,560h55l-10,10h-55l0,0v-90l10-10V560z"/>
	<path class="st3" d="M572,517v10h-10h-10h-10h-10v-25h10v5h10v5h10v5H572z"/>
</g>
<g>
	<path class="st1" d="M695,470v90H595v-90H695z"/>
	<path class="st2" d="M595,560h100l-10,10H585v-90l10-10V560z"/>
</g>
<g>
	<path class="st1" d="M810,470v90H710v-90H810z"/>
	<path class="st2" d="M710,560h100l-10,10H700v-90l10-10V560z"/>
</g>
<g>
	<path class="st1" d="M625,190v45h-60v-45H625z"/>
	<path class="st2" d="M565,235h60l-10,10h-60v-45l10-10V235z"/>
</g>
<g>
	<path class="st1" d="M700,190v45h-60v-45H700z"/>
	<path class="st2" d="M640,235h60l-10,10h-60v-45l10-10V235z"/>
</g>
<g>
	<path class="st1" d="M775,190v45h-60v-45H775z"/>
	<path class="st2" d="M715,235h60l-10,10h-60v-45l10-10V235z"/>
</g>
<g>
	<path class="st1" d="M850,190v45h-60v-45H850z"/>
	<path class="st2" d="M790,235h60l-10,10h-60v-45l10-10V235z"/>
</g>
<g>
	<path class="st1" d="M625,250v45h-60v-45H625z"/>
	<path class="st2" d="M565,295h60l-10,10h-60v-45l10-10V295z"/>
</g>
<g>
	<path class="st1" d="M700,250v45h-60v-45H700z"/>
	<path class="st2" d="M640,295h60l-10,10h-60v-45l10-10V295z"/>
</g>
<g>
	<path class="st1" d="M775,250v45h-60v-45H775z"/>
	<path class="st2" d="M715,295h60l-10,10h-60v-45l10-10V295z"/>
</g>
<g>
	<path class="st1" d="M850,250v45h-60v-45H850z"/>
	<path class="st2" d="M790,295h60l-10,10h-60v-45l10-10V295z"/>
</g>
<g>
	<path class="st1" d="M980,150v60h-80v-60H980z"/>
	<path class="st2" d="M900,210h80l-10,10h-80v-60l10-10V210z"/>
</g>
<g>
	<path class="st1" d="M980,225v55h-80v-55H980z"/>
	<path class="st2" d="M900,280h80l-10,10h-80v-55l10-10V280z"/>
</g>
<g>
	<path class="st1" d="M935,295v45h-35v-45H935z"/>
	<path class="st2" d="M900,340h35l-10,10h-35v-45l10-10V340z"/>
</g>
<g>
	<path class="st1" d="M980,295v100h-80v-40h40h10v-60H980z"/>
	<path class="st2" d="M900,395h80l-10,10h-80v-40l10-10V395z M950,295l-10,10v50h10V295z"/>
</g>
<g>
	<path class="st1" d="M670,345v50h-75v-50H670z"/>
	<path class="st2" d="M595,395h75l-10,10h-75v-50l10-10V395z"/>
</g>
<g>
	<path class="st1" d="M800,345v50H685v-50H800z"/>
	<path class="st2" d="M685,395h115l-10,10H675v-50l10-10V395z"/>
	<path class="st3" d="M760,370v10h-10h-10h-10h-10v-25h10v5h10v5h10v5H760z"/>
</g>
</svg>
